#N canvas 0 25 1440 847 12;
#X obj 45 70 loadbang;
#X obj 45 128 s bela_setDigital;
#X obj 662 677 metro 1000;
#X obj 662 706 tgl 19 0 empty empty empty 0 -10 0 12 #fcfcfc #000000 #000000 0 1;
#X msg 45 99 out 18 \, out 19 \, out 20 \, out 21 \, out 22;
#X obj 108 313 *~ 10;
#X obj 108 342 snapshot~;
#X floatatom 108 371 4 0 0 0 - - - 0;
#X obj 108 284 adc~ 9, f 7;
#X obj 171 197 loadbang;
#X text 43 45 Set pins D1-D5 (pd: 18-22) to outputs;
#X obj 171 313 metro 5000;
#X msg 226 643 start;
#X obj 461 701 bng 19 250 50 0 empty empty empty 0 -10 0 12 #c6feff #000000 #000000;
#X obj 226 672 readsf~ 4 44100, f 34;
#X obj 226 701 s~ s1o1;
#X obj 284 701 s~ s1o2;
#X obj 343 701 s~ s1o3;
#X obj 402 701 s~ s1o4;
#X text 158 588 STREAM 1578;
#X msg 280 643 open 1578.wav;
#X obj 280 614 loadbang;
#X obj 461 759 s start-1644;
#X obj 135 643 s load-1644;
#X msg 233 899 start;
#X obj 468 957 bng 19 250 50 0 empty empty empty 0 -10 0 12 #c6feff #000000 #000000;
#X obj 233 928 readsf~ 4 44100, f 34;
#X obj 337 870 r load-1644;
#X msg 337 899 open 1644.wav;
#X obj 58 870 r start-1644;
#X obj 142 899 s load-1701;
#X obj 468 1015 s start-1701;
#X text 205 844 STREAM 1644;
#X obj 233 957 s~ s2o1;
#X obj 291 957 s~ s2o2;
#X obj 350 957 s~ s2o3;
#X obj 409 957 s~ s2o4;
#X obj 604 382 dac~ 1 2 3 4, f 44;
#X msg 232 1165 start;
#X obj 467 1223 bng 19 250 50 0 empty empty empty 0 -10 0 12 #c6feff #000000 #000000;
#X obj 232 1194 readsf~ 4 44100, f 34;
#X text 284 1104 STREAM 1701;
#X obj 57 1136 r start-1701;
#X obj 336 1136 r load-1701;
#X obj 141 1165 s load-1849;
#X msg 336 1165 open 1701.wav;
#X obj 232 1223 s~ s3o1;
#X obj 290 1223 s~ s3o2;
#X obj 349 1223 s~ s3o3;
#X obj 467 1281 s start-1849;
#X obj 408 1223 s~ s3o4;
#X msg 234 1437 start;
#X obj 469 1495 bng 19 250 50 0 empty empty empty 0 -10 0 12 #c6feff #000000 #000000;
#X obj 234 1466 readsf~ 4 44100, f 34;
#X text 206 1367 STREAM 1849;
#X obj 59 1408 r start-1849;
#X obj 338 1408 r load-1849;
#X msg 338 1437 open 1849.wav;
#X obj 143 1437 s load-1909;
#X obj 234 1495 s~ s4o1;
#X obj 292 1495 s~ s4o2;
#X obj 351 1495 s~ s4o3;
#X obj 410 1495 s~ s4o4;
#X obj 469 1553 s start-1909;
#X msg 236 1715 start;
#X obj 471 1773 bng 19 250 50 0 empty empty empty 0 -10 0 12 #c6feff #000000 #000000;
#X obj 236 1744 readsf~ 4 44100, f 34;
#X text 288 1654 STREAM 1909;
#X obj 61 1686 r start-1909;
#X obj 340 1686 r load-1909;
#X msg 340 1715 open 1909.wav;
#X obj 145 1715 s load-1578;
#X obj 350 614 r load-1578;
#X obj 236 1773 s~ s5o1;
#X obj 294 1773 s~ s5o2;
#X obj 353 1773 s~ s5o3;
#X obj 412 1773 s~ s5o4;
#X msg 662 648 stop;
#X msg 599 677 0;
#X obj 51 643 s start-D1;
#X obj 718 648 r start-D1;
#X obj 384 759 s stop-D1;
#X obj 662 619 r stop-D1;
#X obj 58 899 s start-D2;
#X obj 391 1015 s stop-D2;
#X obj 680 926 metro 1000;
#X obj 680 955 tgl 19 0 empty empty empty 0 -10 0 12 #fcfcfc #000000 #000000 0 1;
#X msg 680 897 stop;
#X msg 617 926 0;
#X obj 680 868 r stop-D2;
#X obj 736 897 r start-D2;
#X obj 680 984 s bela_digitalOut19;
#X obj 662 735 s bela_digitalOut18;
#X obj 57 1165 s start-D3;
#X obj 390 1281 s stop-D3;
#X obj 683 1186 metro 1000;
#X obj 683 1215 tgl 19 0 empty empty empty 0 -10 0 12 #fcfcfc #000000 #000000 0 1;
#X msg 683 1157 stop;
#X msg 620 1186 0;
#X text 555 619 Toggle D1 LED;
#X text 573 868 Toggle D2 LED;
#X text 576 1128 Toggle D3 LED;
#X obj 683 1128 r stop-D3;
#X obj 739 1157 r start-D3;
#X obj 683 1244 s bela_digitalOut20;
#X obj 692 1471 metro 1000;
#X obj 692 1500 tgl 19 0 empty empty empty 0 -10 0 12 #fcfcfc #000000 #000000 0 1;
#X msg 692 1442 stop;
#X msg 629 1471 0;
#X obj 59 1437 s start-D4;
#X text 585 1413 Toggle D4 LED;
#X obj 392 1553 s stop-D4;
#X obj 692 1413 r stop-D4;
#X obj 748 1442 r start-D4;
#X obj 692 1529 s bela_digitalOut21;
#X obj 701 1746 metro 1000;
#X obj 701 1775 tgl 19 0 empty empty empty 0 -10 0 12 #fcfcfc #000000 #000000 0 1;
#X msg 701 1717 stop;
#X msg 638 1746 0;
#X obj 394 1832 s stop-D5;
#X obj 61 1715 s start-D5;
#X obj 701 1688 r stop-D5;
#X obj 757 1717 r start-D5;
#X text 594 1688 Toggle D5 LED;
#X obj 701 1804 s bela_digitalOut22;
#X obj 635 295 r~ s4o1;
#X obj 645 324 r~ s5o1;
#X obj 615 237 r~ s2o1;
#X obj 625 266 r~ s3o1;
#X obj 604 208 r~ s1o1;
#X obj 705 208 r~ s1o2;
#X obj 716 237 r~ s2o2;
#X obj 726 266 r~ s3o2;
#X obj 736 295 r~ s4o2;
#X obj 746 324 r~ s5o2;
#X obj 807 208 r~ s1o3;
#X obj 818 237 r~ s2o3;
#X obj 828 266 r~ s3o3;
#X obj 838 295 r~ s4o3;
#X obj 848 324 r~ s5o3;
#X obj 909 208 r~ s1o4;
#X obj 920 237 r~ s2o4;
#X obj 930 266 r~ s3o4;
#X obj 940 295 r~ s4o4;
#X obj 950 324 r~ s5o4;
#X obj 171 226 del 5000;
#X obj 617 897 del 100;
#X obj 599 648 del 100;
#X obj 629 1442 del 100;
#X obj 620 1157 del 100;
#X obj 638 1717 del 100;
#X obj 471 1832 s open-sensor;
#X obj 108 399 expr if($f1 >= 5 \, 1 \, 0);
#X obj 241 197 r open-sensor;
#X obj 108 515 s start-1578;
#X obj 108 457 select 1;
#X obj 108 486 bng 19 250 50 0 empty empty empty 0 -10 0 12 #c6feff #000000 #000000;
#X obj 171 284 tgl 19 0 empty empty empty 0 -10 0 12 #feffc6 #000000 #000000 0 1;
#X obj 45 197 r close-sensor;
#X msg 45 342 0;
#X obj 45 313 del 100;
#X text 40 172 Read pin A0 (microwave sensor) every 5 seconds;
#X obj 206 515 s close-sensor;
#X obj 51 614 r start-1578;
#X msg 108 255 0;
#X msg 241 255 1;
#X obj 108 428 change;
#X obj 241 226 del 5000;
#X text 193 361 turn off while playing;
#X obj 467 1252 del 2000;
#X obj 469 1524 del 1000;
#X obj 471 1802 del 2000;
#X obj 461 730 del 2000;
#X obj 468 986 del 2000;
#X obj 604 353 *~ 0.5;
#X obj 705 353 *~ 0.5;
#X obj 807 353 *~ 0.5;
#X obj 909 353 *~ 0.5;
#X connect 0 0 4 0;
#X connect 2 0 3 0;
#X connect 3 0 92 0;
#X connect 4 0 1 0;
#X connect 5 0 6 0;
#X connect 6 0 7 0;
#X connect 7 0 152 0;
#X connect 8 0 5 0;
#X connect 9 0 145 0;
#X connect 11 0 6 0;
#X connect 12 0 14 0;
#X connect 13 0 81 0;
#X connect 13 0 172 0;
#X connect 14 0 15 0;
#X connect 14 1 16 0;
#X connect 14 2 17 0;
#X connect 14 3 18 0;
#X connect 14 4 13 0;
#X connect 20 0 14 0;
#X connect 21 0 20 0;
#X connect 24 0 26 0;
#X connect 25 0 84 0;
#X connect 25 0 173 0;
#X connect 26 0 33 0;
#X connect 26 1 34 0;
#X connect 26 2 35 0;
#X connect 26 3 36 0;
#X connect 26 4 25 0;
#X connect 27 0 28 0;
#X connect 28 0 26 0;
#X connect 29 0 24 0;
#X connect 29 0 30 0;
#X connect 29 0 83 0;
#X connect 38 0 40 0;
#X connect 39 0 94 0;
#X connect 39 0 169 0;
#X connect 40 0 46 0;
#X connect 40 1 47 0;
#X connect 40 2 48 0;
#X connect 40 3 50 0;
#X connect 40 4 39 0;
#X connect 42 0 38 0;
#X connect 42 0 44 0;
#X connect 42 0 93 0;
#X connect 43 0 45 0;
#X connect 45 0 40 0;
#X connect 51 0 53 0;
#X connect 52 0 111 0;
#X connect 52 0 170 0;
#X connect 53 0 59 0;
#X connect 53 1 60 0;
#X connect 53 2 61 0;
#X connect 53 3 62 0;
#X connect 53 4 52 0;
#X connect 55 0 51 0;
#X connect 55 0 58 0;
#X connect 55 0 109 0;
#X connect 56 0 57 0;
#X connect 57 0 53 0;
#X connect 64 0 66 0;
#X connect 65 0 119 0;
#X connect 65 0 171 0;
#X connect 66 0 73 0;
#X connect 66 1 74 0;
#X connect 66 2 75 0;
#X connect 66 3 76 0;
#X connect 66 4 65 0;
#X connect 68 0 64 0;
#X connect 68 0 71 0;
#X connect 68 0 120 0;
#X connect 69 0 70 0;
#X connect 70 0 66 0;
#X connect 72 0 20 0;
#X connect 77 0 2 0;
#X connect 78 0 3 0;
#X connect 80 0 2 0;
#X connect 82 0 77 0;
#X connect 82 0 147 0;
#X connect 85 0 86 0;
#X connect 86 0 91 0;
#X connect 87 0 85 0;
#X connect 88 0 86 0;
#X connect 89 0 87 0;
#X connect 89 0 146 0;
#X connect 90 0 85 0;
#X connect 95 0 96 0;
#X connect 96 0 104 0;
#X connect 97 0 95 0;
#X connect 98 0 96 0;
#X connect 102 0 97 0;
#X connect 102 0 149 0;
#X connect 103 0 95 0;
#X connect 105 0 106 0;
#X connect 106 0 114 0;
#X connect 107 0 105 0;
#X connect 108 0 106 0;
#X connect 112 0 107 0;
#X connect 112 0 148 0;
#X connect 113 0 105 0;
#X connect 115 0 116 0;
#X connect 116 0 124 0;
#X connect 117 0 115 0;
#X connect 118 0 116 0;
#X connect 121 0 117 0;
#X connect 121 0 150 0;
#X connect 122 0 115 0;
#X connect 125 0 174 0;
#X connect 126 0 174 0;
#X connect 127 0 174 0;
#X connect 128 0 174 0;
#X connect 129 0 174 0;
#X connect 130 0 175 0;
#X connect 131 0 175 0;
#X connect 132 0 175 0;
#X connect 133 0 175 0;
#X connect 134 0 175 0;
#X connect 135 0 176 0;
#X connect 136 0 176 0;
#X connect 137 0 176 0;
#X connect 138 0 176 0;
#X connect 139 0 176 0;
#X connect 140 0 177 0;
#X connect 141 0 177 0;
#X connect 142 0 177 0;
#X connect 143 0 177 0;
#X connect 144 0 177 0;
#X connect 145 0 157 0;
#X connect 146 0 88 0;
#X connect 147 0 78 0;
#X connect 148 0 108 0;
#X connect 149 0 98 0;
#X connect 150 0 118 0;
#X connect 152 0 166 0;
#X connect 153 0 167 0;
#X connect 155 0 156 0;
#X connect 156 0 154 0;
#X connect 156 0 162 0;
#X connect 157 0 11 0;
#X connect 158 0 160 0;
#X connect 158 0 164 0;
#X connect 159 0 7 0;
#X connect 160 0 159 0;
#X connect 163 0 79 0;
#X connect 163 0 23 0;
#X connect 163 0 12 0;
#X connect 164 0 157 0;
#X connect 165 0 157 0;
#X connect 166 0 155 0;
#X connect 167 0 165 0;
#X connect 169 0 49 0;
#X connect 170 0 63 0;
#X connect 171 0 151 0;
#X connect 172 0 22 0;
#X connect 173 0 31 0;
#X connect 174 0 37 0;
#X connect 175 0 37 1;
#X connect 176 0 37 2;
#X connect 177 0 37 3;
